<?xml version="1.0" encoding="utf-8"?><svg xmlns="http://www.w3.org/2000/svg" xmlns:xlink="http://www.w3.org/1999/xlink" width="1366" height="667" preserveAspectRatio="xMidYMid" viewBox="0 0 1366 667" style="z-index:1;margin-right:-2px;display:block;background-repeat-y:initial;background-repeat-x:initial;animation-play-state:paused" ><g transform="" style="animation-play-state:paused" ><defs style="animation-play-state:paused" ><filter id="blur-chir0uqljpc-1" x="-1" y="-1" width="3" height="3" style="animation-play-state:paused" ><feGaussianBlur stdDeviation="3" style="animation-play-state:paused" ></feGaussianBlur></filter>
<filter id="blur-chir0uqljpc-2" x="-1" y="-1" width="3" height="3" style="animation-play-state:paused" ><feGaussianBlur stdDeviation="1.5" style="animation-play-state:paused" ></feGaussianBlur></filter>
<filter id="blur-chir0uqljpc-3" x="-1" y="-1" width="3" height="3" style="animation-play-state:paused" ><feGaussianBlur stdDeviation="1" style="animation-play-state:paused" ></feGaussianBlur></filter></defs>
<circle cx="1200.8523406380614" cy="0" transform="matrix(1,0,0,1,0,483.59124755859375)" r="6.378593109222366" fill="#cecece" opacity="0.36000000000000004" style="transform:matrix(1, 0, 0, 1, 0, 483.591);opacity:0.36;animation-play-state:paused" ></circle>
<circle cx="228.18757527865722" cy="0" transform="matrix(1,0,0,1,0,-4.7618408203125)" r="6.888158121765173" fill="#cecece" opacity="0.36000000000000004" style="transform:matrix(1, 0, 0, 1, 0, -4.76184);opacity:0.36;animation-play-state:paused" ></circle>
<circle cx="951.2708462872098" cy="0" transform="matrix(1,0,0,1,0,568.134765625)" r="6.969213623837941" fill="#cecece" opacity="0.36000000000000004" style="transform:matrix(1, 0, 0, 1, 0, 568.135);opacity:0.36;animation-play-state:paused" ></circle>
<circle cx="217.29233774533884" cy="0" transform="matrix(1,0,0,1,0,512.251953125)" r="6.039752474175266" fill="#cecece" opacity="0.36000000000000004" style="transform:matrix(1, 0, 0, 1, 0, 512.252);opacity:0.36;animation-play-state:paused" ></circle>
<circle cx="463.68835113613255" cy="0" transform="matrix(1,0,0,1,0,333.64593505859375)" r="11.853303342534735" fill="#cecece" opacity="0.63" style="transform:matrix(1, 0, 0, 1, 0, 333.646);opacity:0.63;animation-play-state:paused" ></circle>
<circle cx="818.673030816109" cy="0" transform="matrix(1,0,0,1,0,157.46240234375)" r="14.22896048990495" fill="#cecece" opacity="0.7200000000000001" style="transform:matrix(1, 0, 0, 1, 0, 157.462);opacity:0.72;animation-play-state:paused" ></circle>
<circle cx="555.2385340145552" cy="0" transform="matrix(1,0,0,1,0,171.37078857421875)" r="13.713136089799656" fill="#cecece" opacity="0.7200000000000001" style="transform:matrix(1, 0, 0, 1, 0, 171.371);opacity:0.72;animation-play-state:paused" ></circle>
<circle cx="1193.6000644049818" cy="0" transform="matrix(1,0,0,1,0,293.34759521484375)" r="4.792274855123275" fill="#cecece" opacity="0.36000000000000004" style="transform:matrix(1, 0, 0, 1, 0, 293.348);opacity:0.36;animation-play-state:paused" ></circle>
<circle cx="1189.6115867492063" cy="0" transform="matrix(1,0,0,1,0,164.77508544921875)" r="13.483947984317787" fill="#cecece" opacity="0.7200000000000001" style="transform:matrix(1, 0, 0, 1, 0, 164.775);opacity:0.72;animation-play-state:paused" ></circle>
<circle cx="826.4376942818836" cy="0" transform="matrix(1,0,0,1,0,659.4279174804688)" r="8.775349512346533" fill="#cecece" opacity="0.63" style="transform:matrix(1, 0, 0, 1, 0, 659.428);opacity:0.63;animation-play-state:paused" ></circle>
<circle cx="584.9421775271119" cy="0" transform="matrix(1,0,0,1,0,262.6566162109375)" r="13.099594510749519" fill="#cecece" opacity="0.7200000000000001" style="transform:matrix(1, 0, 0, 1, 0, 262.657);opacity:0.72;animation-play-state:paused" ></circle>
<circle cx="1307.041468111499" cy="0" transform="matrix(1,0,0,1,0,157.59075927734375)" r="12.624920877481774" fill="#cecece" opacity="0.7200000000000001" style="transform:matrix(1, 0, 0, 1, 0, 157.591);opacity:0.72;animation-play-state:paused" ></circle>
<circle cx="171.7198192484149" cy="0" transform="matrix(1,0,0,1,0,4.483642578125)" r="7.054999329812196" fill="#cecece" opacity="0.36000000000000004" style="transform:matrix(1, 0, 0, 1, 0, 4.48364);opacity:0.36;animation-play-state:paused" ></circle>
<circle cx="54.42951544398585" cy="0" transform="matrix(1,0,0,1,0,70.6693115234375)" r="9.1498466170259" fill="#cecece" opacity="0.63" style="transform:matrix(1, 0, 0, 1, 0, 70.6693);opacity:0.63;animation-play-state:paused" ></circle>
<circle cx="35.98576072805714" cy="0" transform="matrix(1,0,0,1,0,282.75323486328125)" r="7.343235446324291" fill="#cecece" opacity="0.36000000000000004" style="transform:matrix(1, 0, 0, 1, 0, 282.753);opacity:0.36;animation-play-state:paused" ></circle></g></svg>